<?xml version="1.0" encoding="utf-8"?>
<svg version="1.1" fill="none" height="32" viewBox="0 0 32 32" width="32" xmlns="http://www.w3.org/2000/svg"><path d="m16.0021 0c-8.8376 0-16.0021 7.20701-16.0021 16.0971 0 8.0356 5.85601 14.6989 13.5096 15.9029v-11.255h-4.0885v-4.6479h4.0885l.0043-3.5474c0-4.03507 2.3767-6.27054 6.0319-6.27054 1.7504 0 3.5694.34093 3.5694.34093v3.93581h-2.0078c-1.9863 0-2.6213 1.2515-2.6213 2.5246l.0043 3.0209h4.4446l-.7122 4.6436h-3.7324v11.2507c7.6536-1.2041 13.5096-7.863 13.5096-15.9029 0-8.88579-7.1645-16.0928-15.9979-16.0928z" fill="#1877f2"/></svg>
