<?xml version="1.0" encoding="utf-8"?>
<svg version="1.1"  fill="none" height="32" viewBox="0 0 32 32" width="32" xmlns="http://www.w3.org/2000/svg" xmlns:xlink="http://www.w3.org/1999/xlink"><linearGradient id="a" gradientUnits="userSpaceOnUse" x1="26.8449" x2="-4.55363" y1="-6.22352" y2="4.08008"><stop offset="0" stop-color="#ba00b4"/><stop offset="1" stop-color="#ed1f1f"/></linearGradient><path d="m31.1569 5.51318c-.4102-1.05117-.9556-1.94531-1.8458-2.83074-.8902-.88978-1.7804-1.435-2.8321-1.844995-1.0167-.396914-2.1818-.667339-3.8837-.7414878-1.7062-.0785104-2.2517-.0959572-6.5979-.0959572-4.3463 0-4.8917.0174468-6.59795.0959572-1.70185.0785108-2.86697.3489358-3.88371.7414878-1.05166.409995-1.94622.955215-2.83205 1.844995-.8902.88979-1.43566 1.77957-1.845851 2.83074-.397098 1.01628-.667654 2.18085-.7418367 3.88191-.0785469 1.70541-.0960023 2.25061-.0960023 6.59491 0 4.3442.0174554 4.8894.0960023 6.5948.0785467 1.7011.3491027 2.8657.7418367 3.882.410191 1.0511.955651 1.9453 1.845851 2.8307.8902.8898 1.78039 1.435 2.83205 1.845 1.01674.3969 2.18186.6673 3.88371.7415 1.70625.0785 2.25165.0959 6.59795.0959 4.3462 0 4.8917-.0174 6.5979-.0959 1.7019-.0785 2.867-.349 3.8837-.7415 1.0517-.41 1.9463-.9552 2.8321-1.845.8902-.8898 1.4356-1.7796 1.8458-2.8307.3971-1.0163.6677-2.1809.7419-3.882.0785-1.7054.096-2.2506.096-6.5948 0-4.3443-.0175-4.8895-.096-6.59491-.0742-1.70106-.3448-2.86563-.7419-3.88191zm-2.1338 16.93642c-.0698 1.5572-.3317 2.4077-.5498 2.9704-.2924.7458-.6371 1.2779-1.1957 1.8406-.5586.5583-1.0909.9072-1.8415 1.1951-.5629.2181-1.4095.4798-2.9717.5496-1.6887.0785-2.1906.0916-6.4626.0916-4.2721 0-4.7783-.0175-6.46271-.0916-1.55785-.0698-2.40878-.3315-2.97169-.5496-.7462-.2922-1.27857-.6368-1.84149-1.1951-.55856-.5583-.90765-1.0904-1.19566-1.8406-.21818-.5627-.48001-1.4089-.54983-2.9704-.07855-1.6879-.09163-2.1939-.09163-6.4596 0-4.2658.01745-4.7761.09163-6.4597.06982-1.55712.33165-2.40765.54983-2.97031.29237-.74585.6371-1.27798 1.19566-1.84064.55855-.55829 1.09093-.90723 1.84149-1.1951.56291-.21809 1.40947-.47979 2.97169-.54958 1.68871-.07851 2.19491-.09159 6.46271-.09159 4.272 0 4.7782.01745 6.4626.09159 1.5579.06979 2.4088.33149 2.9717.54958.7462.28787 1.2786.63681 1.8415 1.1951.5586.5583.9076 1.09043 1.1957 1.84064.2181.56266.48 1.40882.5498 2.97031.0785 1.688.0916 2.1939.0916 6.4597 0 4.2657-.0174 4.7717-.0916 6.4596zm-13.0213-14.6727c-4.5383 0-8.21692 3.6769-8.21692 8.2131 0 4.5361 3.67862 8.213 8.21692 8.213 4.5382 0 8.2168-3.6769 8.2168-8.213 0-4.5362-3.6829-8.2131-8.2168-8.2131zm0 13.5431c-2.9456 0-5.3325-2.3859-5.3325-5.33 0-2.9442 2.3869-5.33 5.3325-5.33 2.9455 0 5.3324 2.3858 5.3324 5.33 0 2.9441-2.3913 5.33-5.3324 5.33zm8.5398-15.78937c-1.0604 0-1.9201.85925-1.9201 1.91914s.8597 1.91915 1.9201 1.91915c1.0603 0 1.92-.85926 1.92-1.91915s-.8597-1.91914-1.92-1.91914z" fill="url(#a)"/></svg>
